<svg xmlns="http://www.w3.org/2000/svg" width="17" height="17" viewBox="0 0 17 17" fill="none">
<g clip-path="url(#clip0_1107_288)">
<path d="M8.50008 1.41663C4.59008 1.41663 1.41675 4.58996 1.41675 8.49996C1.41675 12.41 4.59008 15.5833 8.50008 15.5833C12.4101 15.5833 15.5834 12.41 15.5834 8.49996C15.5834 4.58996 12.4101 1.41663 8.50008 1.41663ZM8.50008 3.54163C9.67591 3.54163 10.6251 4.49079 10.6251 5.66663C10.6251 6.84246 9.67591 7.79163 8.50008 7.79163C7.32425 7.79163 6.37508 6.84246 6.37508 5.66663C6.37508 4.49079 7.32425 3.54163 8.50008 3.54163ZM8.50008 13.6C6.72925 13.6 5.16383 12.6933 4.25008 11.3191C4.27133 9.90954 7.08341 9.13746 8.50008 9.13746C9.90966 9.13746 12.7288 9.90954 12.7501 11.3191C11.8363 12.6933 10.2709 13.6 8.50008 13.6Z" fill="#37474F"/>
</g>
<defs>
<clipPath id="clip0_1107_288">
<rect width="17" height="17" fill="white"/>
</clipPath>
</defs>
</svg>