<svg xmlns="http://www.w3.org/2000/svg" width="17" height="17" viewBox="0 0 17 17" fill="none">
<g clip-path="url(#clip0_1172_345)">
<path d="M8.49984 4.95829C8.11025 4.95829 7.7915 5.27704 7.7915 5.66663V7.79163H5.6665C5.27692 7.79163 4.95817 8.11038 4.95817 8.49996C4.95817 8.88954 5.27692 9.20829 5.6665 9.20829H7.7915V11.3333C7.7915 11.7229 8.11025 12.0416 8.49984 12.0416C8.88942 12.0416 9.20817 11.7229 9.20817 11.3333V9.20829H11.3332C11.7228 9.20829 12.0415 8.88954 12.0415 8.49996C12.0415 8.11038 11.7228 7.79163 11.3332 7.79163H9.20817V5.66663C9.20817 5.27704 8.88942 4.95829 8.49984 4.95829ZM8.49984 1.41663C4.58984 1.41663 1.4165 4.58996 1.4165 8.49996C1.4165 12.41 4.58984 15.5833 8.49984 15.5833C12.4098 15.5833 15.5832 12.41 15.5832 8.49996C15.5832 4.58996 12.4098 1.41663 8.49984 1.41663ZM8.49984 14.1666C5.37609 14.1666 2.83317 11.6237 2.83317 8.49996C2.83317 5.37621 5.37609 2.83329 8.49984 2.83329C11.6236 2.83329 14.1665 5.37621 14.1665 8.49996C14.1665 11.6237 11.6236 14.1666 8.49984 14.1666Z" fill="white"/>
</g>
<defs>
<clipPath id="clip0_1172_345">
<rect width="17" height="17" fill="white"/>
</clipPath>
</defs>
</svg>