<svg width="20" height="20" viewBox="0 0 15 15" fill="none" xmlns="http://www.w3.org/2000/svg">
<path d="M1.5 3.375L13.5 3.375M10.5 13.875H4.5C3.67157 13.875 3 13.2034 3 12.375V4.125C3 3.71079 3.33579 3.375 3.75 3.375H11.25C11.6642 3.375 12 3.71079 12 4.125V12.375C12 13.2034 11.3284 13.875 10.5 13.875ZM6 3.375H9C9.41421 3.375 9.75 3.03921 9.75 2.625V1.875C9.75 1.46079 9.41421 1.125 9 1.125H6C5.58579 1.125 5.25 1.46079 5.25 1.875V2.625C5.25 3.03921 5.58579 3.375 6 3.375Z" stroke="red" stroke-width="1.3" stroke-linecap="round"/>
</svg>
