<svg width="20" height="20" viewBox="0 0 15 15" fill="none" xmlns="http://www.w3.org/2000/svg">
<path d="M6.90527 2.09477H3.15527C1.91263 2.09477 0.905273 3.10213 0.905273 4.34477V11.8448C0.905273 13.0875 1.91263 14.0948 3.15527 14.0948H10.6553C11.8979 14.0948 12.9053 13.0875 12.9053 11.8448L12.9053 8.0948M4.65527 10.3448L7.38401 9.79494C7.52887 9.76575 7.66188 9.69442 7.76635 9.5899L13.8749 3.47801C14.1678 3.18497 14.1676 2.70998 13.8744 2.41719L12.5804 1.12464C12.2874 0.831976 11.8127 0.832176 11.5199 1.12509L5.41075 7.23762C5.30649 7.34194 5.2353 7.47468 5.20609 7.61924L4.65527 10.3448Z" stroke="#54619F" stroke-width="1.3" stroke-linecap="round" stroke-linejoin="round"/>
</svg>
