<svg xmlns="http://www.w3.org/2000/svg" width="40" height="40" viewBox="0 0 40 40" fill="none">
<rect width="40" height="40" rx="20" fill="#E3E3E3"/>
<g clip-path="url(#clip0_725_258)">
<path d="M29.2239 31.5936C28.5836 31.306 27.3299 30.8013 26.1903 30.3617C25.9678 33.3085 23.5094 35.6638 20.492 35.6638C17.4746 35.6638 15.0163 33.3303 14.7937 30.3617C13.6487 30.8012 12.3733 31.306 11.7601 31.6153C9.86605 32.4945 8.21631 33.5961 8.21631 35.6204V39.9999H32.7841V35.6204C32.7677 33.5745 31.0962 32.4565 29.2239 31.5936Z" fill="#FF667C"/>
<path d="M28.0137 20.8645H23.2651V14.7267H26.1468C27.1779 14.7267 28.0191 15.5625 28.0191 16.599V20.8645H28.0137Z" fill="#4A0077"/>
<path d="M27.992 10.8791C27.7967 8.94164 26.2771 7.36241 24.3614 7.05306C23.6777 6.94452 23.0427 7.00966 22.4458 7.18335C23.2815 7.5361 23.8296 8.39354 23.7645 9.35953C23.6777 10.5263 22.6628 11.4055 21.5014 11.4055H16.2862C14.4627 11.4055 12.9648 12.8816 12.9648 14.7268V15.6711V21.1034H18.1801V15.7145H23.6776C26.2336 15.7145 28.258 13.4731 27.992 10.8791Z" fill="#4A0077"/>
<path d="M15.0868 19.6544C14.8806 19.5947 14.6689 19.5621 14.441 19.5621C13.1548 19.5621 12.1074 20.6041 12.1074 21.8957C12.1074 23.1819 13.1494 24.2293 14.441 24.2293C14.6636 24.2293 14.8806 24.1967 15.0868 24.137V19.6544Z" fill="#EEB490"/>
<path d="M26.5862 19.5676C26.3637 19.5676 26.1467 19.6002 25.9404 19.6599V24.1425C26.1467 24.2022 26.3583 24.2348 26.5862 24.2348C27.8724 24.2348 28.9198 23.1928 28.9198 21.9012C28.9145 20.6096 27.8725 19.5676 26.5862 19.5676Z" fill="#EEB490"/>
<path d="M23.8133 29.4391L23.5474 27.7893H17.4366L17.1924 29.4608C17.1924 29.4608 16.069 29.8787 14.8154 30.3616C15.038 33.3085 17.4963 35.6638 20.5137 35.6638C23.5312 35.6638 25.9895 33.3302 26.212 30.3616C24.9367 29.857 23.8133 29.4391 23.8133 29.4391Z" fill="#EEB490"/>
<path d="M23.5688 15.7145H17.4146C15.9656 15.7145 14.7988 16.8813 14.7988 18.3303V24.2239C14.7988 27.3716 17.3495 29.9439 20.5188 29.9439C23.6664 29.9439 26.2387 27.3932 26.2387 24.2239V18.3358C26.2117 16.8813 25.0232 15.7145 23.5688 15.7145Z" fill="#EEB490"/>
</g>
<defs>
<clipPath id="clip0_725_258">
<rect width="33" height="33" fill="white" transform="translate(4 7)"/>
</clipPath>
</defs>
</svg>