<svg xmlns="http://www.w3.org/2000/svg" width="17" height="17" viewBox="0 0 17 17" fill="none">
<g clip-path="url(#clip0_1107_231)">
<path d="M4.25008 9.20833C2.69175 9.20833 1.41675 10.4833 1.41675 12.0417C1.41675 13.6 2.69175 14.875 4.25008 14.875C5.80841 14.875 7.08341 13.6 7.08341 12.0417C7.08341 10.4833 5.80841 9.20833 4.25008 9.20833ZM8.50008 2.125C6.94175 2.125 5.66675 3.4 5.66675 4.95833C5.66675 6.51667 6.94175 7.79167 8.50008 7.79167C10.0584 7.79167 11.3334 6.51667 11.3334 4.95833C11.3334 3.4 10.0584 2.125 8.50008 2.125ZM12.7501 9.20833C11.1917 9.20833 9.91675 10.4833 9.91675 12.0417C9.91675 13.6 11.1917 14.875 12.7501 14.875C14.3084 14.875 15.5834 13.6 15.5834 12.0417C15.5834 10.4833 14.3084 9.20833 12.7501 9.20833Z" fill="#37474F"/>
</g>
<defs>
<clipPath id="clip0_1107_231">
<rect width="17" height="17" fill="white"/>
</clipPath>
</defs>
</svg>